<svg width="139" height="18" viewBox="0 0 139 18" fill="none" xmlns="http://www.w3.org/2000/svg">
<path d="M20.3438 17H13.7578C12.7656 15.4766 11.8711 14.2031 11.0742 13.1797C10.2773 12.1562 9.25781 10.8711 8.01562 9.32422H7.40625V14.5508C7.40625 14.832 7.45703 15.0703 7.55859 15.2656C7.66016 15.4609 7.86328 15.625 8.16797 15.7578C8.30859 15.8203 8.51562 15.8828 8.78906 15.9453C9.07031 16.0078 9.34766 16.0547 9.62109 16.0859V17H0.785156V16.0859C0.996094 16.0703 1.29297 16.0469 1.67578 16.0156C2.06641 15.9844 2.33984 15.9375 2.49609 15.875C2.77734 15.7656 2.97266 15.6133 3.08203 15.418C3.19141 15.2227 3.24609 14.9766 3.24609 14.6797V2.89062C3.24609 2.61719 3.19922 2.38672 3.10547 2.19922C3.01172 2.01172 2.80859 1.84375 2.49609 1.69531C2.25391 1.58594 1.96094 1.49609 1.61719 1.42578C1.27344 1.35547 0.996094 1.30859 0.785156 1.28516V0.371094H9.91406V1.28516C9.67188 1.30859 9.37891 1.34375 9.03516 1.39062C8.69922 1.42969 8.41016 1.48828 8.16797 1.56641C7.86328 1.66797 7.66016 1.82812 7.55859 2.04688C7.45703 2.26563 7.40625 2.50781 7.40625 2.77344V8.375H7.89844C8.50781 7.82031 9.21875 7.15234 10.0312 6.37109C10.8438 5.58984 11.4727 4.94922 11.918 4.44922C12.543 3.75391 13 3.20312 13.2891 2.79688C13.5859 2.39062 13.7344 2.03906 13.7344 1.74219C13.7344 1.60938 13.5938 1.50781 13.3125 1.4375C13.0312 1.36719 12.6016 1.31641 12.0234 1.28516V0.371094H19.2539V1.28516C18.3789 1.37891 17.6445 1.53906 17.0508 1.76562C16.457 1.98438 15.8672 2.35547 15.2812 2.87891C14.4453 3.62891 13.7539 4.28125 13.207 4.83594C12.668 5.38281 11.9727 6.08594 11.1211 6.94531C11.8711 7.85938 12.7734 8.98047 13.8281 10.3086C14.8828 11.6289 15.9336 12.918 16.9805 14.1758C17.2461 14.4961 17.5508 14.8047 17.8945 15.1016C18.2383 15.3906 18.6172 15.625 19.0312 15.8047C19.2266 15.8906 19.4492 15.957 19.6992 16.0039C19.9492 16.0508 20.1641 16.0781 20.3438 16.0859V17ZM33.6914 16.7539C33.3477 16.9023 32.9414 17.0391 32.4727 17.1641C32.0039 17.2891 31.5078 17.3516 30.9844 17.3516C30.0234 17.3516 29.3164 17.2109 28.8633 16.9297C28.4102 16.6406 28.1016 16.2305 27.9375 15.6992H27.8672C27.6016 15.9648 27.3438 16.1914 27.0938 16.3789C26.8516 16.5664 26.5898 16.7266 26.3086 16.8594C25.9414 17.0312 25.5859 17.1562 25.2422 17.2344C24.9062 17.3203 24.4336 17.3633 23.8242 17.3633C22.918 17.3633 22.1445 17.0977 21.5039 16.5664C20.8633 16.0273 20.543 15.3164 20.543 14.4336C20.543 13.9258 20.6133 13.4961 20.7539 13.1445C20.8945 12.7852 21.0938 12.4688 21.3516 12.1953C21.5859 11.9453 21.8555 11.7383 22.1602 11.5742C22.4727 11.4102 22.8125 11.2578 23.1797 11.1172C23.8828 10.8594 24.7266 10.5938 25.7109 10.3203C26.6953 10.0391 27.4141 9.78906 27.8672 9.57031V8.44531C27.8672 8.25 27.8516 7.99219 27.8203 7.67188C27.7891 7.35156 27.7227 7.08203 27.6211 6.86328C27.5117 6.61328 27.3398 6.40234 27.1055 6.23047C26.8711 6.05859 26.5625 5.97266 26.1797 5.97266C25.8359 5.97266 25.5469 6.02344 25.3125 6.125C25.0859 6.21875 24.9023 6.31641 24.7617 6.41797C24.7852 6.57422 24.8516 6.8125 24.9609 7.13281C25.0703 7.45312 25.125 7.76172 25.125 8.05859C25.125 8.19141 25.0898 8.35938 25.0195 8.5625C24.9492 8.75781 24.8477 8.91406 24.7148 9.03125C24.5352 9.1875 24.332 9.30859 24.1055 9.39453C23.8867 9.48047 23.5469 9.52344 23.0859 9.52344C22.4297 9.52344 21.9336 9.36719 21.5977 9.05469C21.2617 8.73438 21.0938 8.32031 21.0938 7.8125C21.0938 7.375 21.2656 6.98438 21.6094 6.64062C21.9609 6.28906 22.3867 6 22.8867 5.77344C23.3789 5.53906 23.9453 5.35938 24.5859 5.23438C25.2266 5.10156 25.8203 5.03516 26.3672 5.03516C27.125 5.03516 27.8203 5.08203 28.4531 5.17578C29.0859 5.26172 29.6562 5.44531 30.1641 5.72656C30.6484 6 31.0312 6.39844 31.3125 6.92188C31.6016 7.4375 31.7461 8.11328 31.7461 8.94922C31.7461 9.83203 31.7266 10.8789 31.6875 12.0898C31.6562 13.3008 31.6406 14.0977 31.6406 14.4805C31.6406 14.832 31.6914 15.1094 31.793 15.3125C31.9023 15.5156 32.0664 15.668 32.2852 15.7695C32.418 15.832 32.625 15.8711 32.9062 15.8867C33.1953 15.8945 33.457 15.8984 33.6914 15.8984V16.7539ZM27.8672 10.6484C27.4297 10.7969 26.9961 10.9688 26.5664 11.1641C26.1367 11.3516 25.7852 11.5508 25.5117 11.7617C25.2227 11.9805 24.9961 12.2617 24.832 12.6055C24.668 12.9414 24.5859 13.3398 24.5859 13.8008C24.5859 14.4102 24.7227 14.8516 24.9961 15.125C25.2773 15.3984 25.6211 15.5352 26.0273 15.5352C26.457 15.5352 26.8086 15.4492 27.082 15.2773C27.3633 15.0977 27.6094 14.8789 27.8203 14.6211L27.8672 10.6484ZM46.2656 7.51953C46.2656 8.11328 46.082 8.63672 45.7148 9.08984C45.3477 9.53516 44.8633 9.75781 44.2617 9.75781C43.6914 9.75781 43.207 9.61328 42.8086 9.32422C42.418 9.03516 42.2227 8.60938 42.2227 8.04688C42.2227 7.77344 42.2422 7.5625 42.2812 7.41406C42.3203 7.25781 42.3555 7.11328 42.3867 6.98047C42.0273 6.99609 41.6484 7.12109 41.25 7.35547C40.8516 7.58984 40.5 7.90234 40.1953 8.29297V14.7266C40.1953 15 40.2383 15.2266 40.3242 15.4062C40.4102 15.5859 40.5547 15.7266 40.7578 15.8281C40.9297 15.9141 41.207 15.9883 41.5898 16.0508C41.9805 16.1055 42.2617 16.1367 42.4336 16.1445V17H34.5938V16.1445C34.7891 16.1289 34.9844 16.1094 35.1797 16.0859C35.3828 16.0547 35.5547 16.0156 35.6953 15.9688C35.9453 15.8828 36.1172 15.75 36.2109 15.5703C36.3047 15.3906 36.3516 15.1562 36.3516 14.8672V8.04688C36.3516 7.76562 36.2852 7.51562 36.1523 7.29688C36.0195 7.07031 35.8594 6.89062 35.6719 6.75781C35.5312 6.66406 35.3516 6.58594 35.1328 6.52344C34.9219 6.46094 34.6875 6.41797 34.4297 6.39453V5.53906L40.0195 5.23438L40.1953 5.41016V7.10938H40.2422C40.7812 6.48438 41.3516 5.99609 41.9531 5.64453C42.5625 5.28516 43.1953 5.10547 43.8516 5.10547C44.5781 5.10547 45.1602 5.33203 45.5977 5.78516C46.043 6.23047 46.2656 6.80859 46.2656 7.51953ZM60.4805 16.7539C60.1367 16.9023 59.7305 17.0391 59.2617 17.1641C58.793 17.2891 58.2969 17.3516 57.7734 17.3516C56.8125 17.3516 56.1055 17.2109 55.6523 16.9297C55.1992 16.6406 54.8906 16.2305 54.7266 15.6992H54.6562C54.3906 15.9648 54.1328 16.1914 53.8828 16.3789C53.6406 16.5664 53.3789 16.7266 53.0977 16.8594C52.7305 17.0312 52.375 17.1562 52.0312 17.2344C51.6953 17.3203 51.2227 17.3633 50.6133 17.3633C49.707 17.3633 48.9336 17.0977 48.293 16.5664C47.6523 16.0273 47.332 15.3164 47.332 14.4336C47.332 13.9258 47.4023 13.4961 47.543 13.1445C47.6836 12.7852 47.8828 12.4688 48.1406 12.1953C48.375 11.9453 48.6445 11.7383 48.9492 11.5742C49.2617 11.4102 49.6016 11.2578 49.9688 11.1172C50.6719 10.8594 51.5156 10.5938 52.5 10.3203C53.4844 10.0391 54.2031 9.78906 54.6562 9.57031V8.44531C54.6562 8.25 54.6406 7.99219 54.6094 7.67188C54.5781 7.35156 54.5117 7.08203 54.4102 6.86328C54.3008 6.61328 54.1289 6.40234 53.8945 6.23047C53.6602 6.05859 53.3516 5.97266 52.9688 5.97266C52.625 5.97266 52.3359 6.02344 52.1016 6.125C51.875 6.21875 51.6914 6.31641 51.5508 6.41797C51.5742 6.57422 51.6406 6.8125 51.75 7.13281C51.8594 7.45312 51.9141 7.76172 51.9141 8.05859C51.9141 8.19141 51.8789 8.35938 51.8086 8.5625C51.7383 8.75781 51.6367 8.91406 51.5039 9.03125C51.3242 9.1875 51.1211 9.30859 50.8945 9.39453C50.6758 9.48047 50.3359 9.52344 49.875 9.52344C49.2188 9.52344 48.7227 9.36719 48.3867 9.05469C48.0508 8.73438 47.8828 8.32031 47.8828 7.8125C47.8828 7.375 48.0547 6.98438 48.3984 6.64062C48.75 6.28906 49.1758 6 49.6758 5.77344C50.168 5.53906 50.7344 5.35938 51.375 5.23438C52.0156 5.10156 52.6094 5.03516 53.1562 5.03516C53.9141 5.03516 54.6094 5.08203 55.2422 5.17578C55.875 5.26172 56.4453 5.44531 56.9531 5.72656C57.4375 6 57.8203 6.39844 58.1016 6.92188C58.3906 7.4375 58.5352 8.11328 58.5352 8.94922C58.5352 9.83203 58.5156 10.8789 58.4766 12.0898C58.4453 13.3008 58.4297 14.0977 58.4297 14.4805C58.4297 14.832 58.4805 15.1094 58.582 15.3125C58.6914 15.5156 58.8555 15.668 59.0742 15.7695C59.207 15.832 59.4141 15.8711 59.6953 15.8867C59.9844 15.8945 60.2461 15.8984 60.4805 15.8984V16.7539ZM54.6562 10.6484C54.2188 10.7969 53.7852 10.9688 53.3555 11.1641C52.9258 11.3516 52.5742 11.5508 52.3008 11.7617C52.0117 11.9805 51.7852 12.2617 51.6211 12.6055C51.457 12.9414 51.375 13.3398 51.375 13.8008C51.375 14.4102 51.5117 14.8516 51.7852 15.125C52.0664 15.3984 52.4102 15.5352 52.8164 15.5352C53.2461 15.5352 53.5977 15.4492 53.8711 15.2773C54.1523 15.0977 54.3984 14.8789 54.6094 14.6211L54.6562 10.6484ZM84.668 17H77.6836V16.1445C77.8555 16.1211 78.0352 16.1016 78.2227 16.0859C78.4102 16.0703 78.5664 16.0312 78.6914 15.9688C78.8633 15.8906 78.9727 15.7617 79.0195 15.582C79.0664 15.3945 79.0898 15.1562 79.0898 14.8672V9.39453C79.0898 8.58984 78.9453 7.98828 78.6562 7.58984C78.375 7.18359 77.9688 6.98047 77.4375 6.98047C77.1016 6.98047 76.8008 7.03516 76.5352 7.14453C76.2773 7.24609 76.0391 7.375 75.8203 7.53125C75.5938 7.69531 75.418 7.85938 75.293 8.02344C75.168 8.1875 75.0625 8.32812 74.9766 8.44531V14.7383C74.9766 15.0195 75.0078 15.25 75.0703 15.4297C75.1406 15.6016 75.2656 15.7383 75.4453 15.8398C75.5703 15.9102 75.7109 15.9727 75.8672 16.0273C76.0312 16.082 76.2031 16.1211 76.3828 16.1445V17H69.6914V16.1445C69.8398 16.1289 70.0195 16.1094 70.2305 16.0859C70.4414 16.0625 70.5977 16.0234 70.6992 15.9688C70.8633 15.8828 70.9688 15.7578 71.0156 15.5938C71.0703 15.4297 71.0977 15.1875 71.0977 14.8672V9.39453C71.0977 8.58984 70.9531 7.98828 70.6641 7.58984C70.3828 7.18359 69.9766 6.98047 69.4453 6.98047C69.1094 6.98047 68.8086 7.03516 68.543 7.14453C68.2852 7.24609 68.0469 7.375 67.8281 7.53125C67.6016 7.69531 67.4258 7.85938 67.3008 8.02344C67.1758 8.1875 67.0703 8.32812 66.9844 8.44531V14.7383C66.9844 15.0117 67.0195 15.2383 67.0898 15.418C67.1602 15.5977 67.2852 15.7383 67.4648 15.8398C67.5898 15.9102 67.7305 15.9727 67.8867 16.0273C68.0508 16.082 68.2227 16.1211 68.4023 16.1445V17H61.3828V16.1445C61.5859 16.1289 61.7852 16.1094 61.9805 16.0859C62.1758 16.0625 62.3438 16.0234 62.4844 15.9688C62.7344 15.875 62.9062 15.7422 63 15.5703C63.0938 15.3906 63.1406 15.1562 63.1406 14.8672V8.04688C63.1406 7.79688 63.0742 7.55469 62.9414 7.32031C62.8086 7.07812 62.6484 6.89062 62.4609 6.75781C62.3203 6.66406 62.1406 6.58594 61.9219 6.52344C61.7109 6.46094 61.4766 6.41797 61.2188 6.39453V5.53906L66.8086 5.23438L66.9844 5.41016V7.0625H67.0312C67.25 6.86719 67.5078 6.63672 67.8047 6.37109C68.1094 6.09766 68.3945 5.87891 68.6602 5.71484C68.9492 5.52734 69.3203 5.37109 69.7734 5.24609C70.2266 5.12109 70.7227 5.05859 71.2617 5.05859C72.1523 5.05859 72.8945 5.25391 73.4883 5.64453C74.0898 6.02734 74.5156 6.53906 74.7656 7.17969H74.8711C75.0977 6.96875 75.375 6.72266 75.7031 6.44141C76.0312 6.15234 76.332 5.92188 76.6055 5.75C76.9102 5.55469 77.2969 5.39062 77.7656 5.25781C78.2422 5.125 78.75 5.05859 79.2891 5.05859C80.4688 5.05859 81.375 5.40625 82.0078 6.10156C82.6484 6.79688 82.9688 7.78516 82.9688 9.06641V14.7617C82.9688 15.0508 83.0117 15.2852 83.0977 15.4648C83.1836 15.6367 83.3398 15.7695 83.5664 15.8633C83.6914 15.918 83.8438 15.9727 84.0234 16.0273C84.2109 16.082 84.4258 16.1211 84.668 16.1445V17ZM109.535 1.28516C109.254 1.31641 108.996 1.36719 108.762 1.4375C108.527 1.50781 108.305 1.60547 108.094 1.73047C107.758 1.91797 107.457 2.16016 107.191 2.45703C106.934 2.74609 106.68 3.07031 106.43 3.42969C105.922 4.17188 105.387 4.98047 104.824 5.85547C104.27 6.72266 103.664 7.67969 103.008 8.72656C102.578 9.39062 102.312 9.90234 102.211 10.2617C102.117 10.6133 102.07 11.2266 102.07 12.1016V14.457C102.07 14.7383 102.121 14.9844 102.223 15.1953C102.332 15.4062 102.535 15.5781 102.832 15.7109C102.965 15.7656 103.246 15.8398 103.676 15.9336C104.105 16.0195 104.422 16.0703 104.625 16.0859V17H95.3555V16.0859C95.5742 16.0703 95.8867 16.0391 96.293 15.9922C96.707 15.9453 96.9961 15.8906 97.1602 15.8281C97.4492 15.7031 97.6445 15.5391 97.7461 15.3359C97.8555 15.125 97.9102 14.8711 97.9102 14.5742V11.6445C97.9102 11.3867 97.9062 11.1602 97.8984 10.9648C97.8906 10.7695 97.8633 10.6055 97.8164 10.4727C97.7617 10.3242 97.668 10.1367 97.5352 9.91016C97.4023 9.67578 97.2305 9.375 97.0195 9.00781C96.418 7.95312 95.8359 6.95312 95.2734 6.00781C94.7109 5.0625 94.1758 4.17578 93.668 3.34766C93.4023 2.91797 93.1328 2.57422 92.8594 2.31641C92.5938 2.05078 92.3203 1.83594 92.0391 1.67188C91.8281 1.55469 91.5703 1.46484 91.2656 1.40234C90.9688 1.33984 90.6992 1.30078 90.457 1.28516V0.371094H99.9844V1.28516C99.1094 1.30859 98.5195 1.37109 98.2148 1.47266C97.9102 1.56641 97.7578 1.69922 97.7578 1.87109C97.7578 1.95703 97.8125 2.12891 97.9219 2.38672C98.0391 2.64453 98.2422 3.04297 98.5312 3.58203C98.7969 4.08984 99.1836 4.78906 99.6914 5.67969C100.207 6.57031 100.824 7.61328 101.543 8.80859C103.027 6.45703 104.047 4.81641 104.602 3.88672C105.156 2.94922 105.434 2.375 105.434 2.16406C105.434 1.89844 105.27 1.69531 104.941 1.55469C104.621 1.41406 104.098 1.32422 103.371 1.28516V0.371094H109.535V1.28516ZM121.395 6.75781C121.973 7.29688 122.414 7.94141 122.719 8.69141C123.023 9.44141 123.176 10.2539 123.176 11.1289C123.176 11.9961 123.023 12.8164 122.719 13.5898C122.422 14.3555 121.984 15.0117 121.406 15.5586C120.789 16.1445 120.051 16.5938 119.191 16.9062C118.34 17.2188 117.363 17.375 116.262 17.375C115.309 17.375 114.43 17.2383 113.625 16.9648C112.828 16.6914 112.121 16.2812 111.504 15.7344C110.91 15.2109 110.441 14.5664 110.098 13.8008C109.754 13.0273 109.582 12.1641 109.582 11.2109C109.582 10.2734 109.73 9.44141 110.027 8.71484C110.332 7.98047 110.785 7.32812 111.387 6.75781C111.965 6.21094 112.676 5.78906 113.52 5.49219C114.371 5.1875 115.32 5.03516 116.367 5.03516C117.461 5.03516 118.422 5.1875 119.25 5.49219C120.086 5.78906 120.801 6.21094 121.395 6.75781ZM118.395 14.8789C118.566 14.4414 118.691 13.9102 118.77 13.2852C118.855 12.6602 118.898 11.9336 118.898 11.1055C118.898 10.5586 118.859 9.93359 118.781 9.23047C118.703 8.52734 118.586 7.97266 118.43 7.56641C118.242 7.07422 117.98 6.6875 117.645 6.40625C117.316 6.125 116.898 5.98438 116.391 5.98438C115.836 5.98438 115.391 6.13672 115.055 6.44141C114.727 6.74609 114.473 7.14062 114.293 7.625C114.129 8.07031 114.016 8.59375 113.953 9.19531C113.891 9.78906 113.859 10.4102 113.859 11.0586C113.859 11.9102 113.887 12.6172 113.941 13.1797C113.996 13.7344 114.129 14.293 114.34 14.8555C114.52 15.3398 114.777 15.7227 115.113 16.0039C115.449 16.2852 115.875 16.4258 116.391 16.4258C116.859 16.4258 117.262 16.2969 117.598 16.0391C117.934 15.7734 118.199 15.3867 118.395 14.8789ZM136.652 6.75781C137.23 7.29688 137.672 7.94141 137.977 8.69141C138.281 9.44141 138.434 10.2539 138.434 11.1289C138.434 11.9961 138.281 12.8164 137.977 13.5898C137.68 14.3555 137.242 15.0117 136.664 15.5586C136.047 16.1445 135.309 16.5938 134.449 16.9062C133.598 17.2188 132.621 17.375 131.52 17.375C130.566 17.375 129.688 17.2383 128.883 16.9648C128.086 16.6914 127.379 16.2812 126.762 15.7344C126.168 15.2109 125.699 14.5664 125.355 13.8008C125.012 13.0273 124.84 12.1641 124.84 11.2109C124.84 10.2734 124.988 9.44141 125.285 8.71484C125.59 7.98047 126.043 7.32812 126.645 6.75781C127.223 6.21094 127.934 5.78906 128.777 5.49219C129.629 5.1875 130.578 5.03516 131.625 5.03516C132.719 5.03516 133.68 5.1875 134.508 5.49219C135.344 5.78906 136.059 6.21094 136.652 6.75781ZM133.652 14.8789C133.824 14.4414 133.949 13.9102 134.027 13.2852C134.113 12.6602 134.156 11.9336 134.156 11.1055C134.156 10.5586 134.117 9.93359 134.039 9.23047C133.961 8.52734 133.844 7.97266 133.688 7.56641C133.5 7.07422 133.238 6.6875 132.902 6.40625C132.574 6.125 132.156 5.98438 131.648 5.98438C131.094 5.98438 130.648 6.13672 130.312 6.44141C129.984 6.74609 129.73 7.14062 129.551 7.625C129.387 8.07031 129.273 8.59375 129.211 9.19531C129.148 9.78906 129.117 10.4102 129.117 11.0586C129.117 11.9102 129.145 12.6172 129.199 13.1797C129.254 13.7344 129.387 14.293 129.598 14.8555C129.777 15.3398 130.035 15.7227 130.371 16.0039C130.707 16.2852 131.133 16.4258 131.648 16.4258C132.117 16.4258 132.52 16.2969 132.855 16.0391C133.191 15.7734 133.457 15.3867 133.652 14.8789Z" fill="#566DAA"/>
</svg>
